<svg width="48" height="48" viewBox="0 0 48 48" fill="none" xmlns="http://www.w3.org/2000/svg">
<g clip-path="url(#clip0_4722_43916)">
<path d="M0.229141 23.447C0.229376 23.4468 0.22957 23.4465 0.229843 23.4462L4.31203 19.3837C4.61785 19.0794 5.1125 19.0805 5.41691 19.3864C5.72129 19.6922 5.72012 20.1869 5.4143 20.4912L2.67352 23.2187H19.2188C19.6502 23.2187 20 23.5685 20 24C20 24.4315 19.6502 24.7812 19.2188 24.7812H2.67355L5.41426 27.5087C5.72008 27.8131 5.72125 28.3078 5.41687 28.6136C5.11246 28.9195 4.61777 28.9205 4.31199 28.6162L0.229805 24.5537C0.22957 24.5535 0.229374 24.5532 0.229101 24.553C-0.0768757 24.2476 -0.0758991 23.7514 0.229141 23.447Z" fill="white"/>
</g>
<g clip-path="url(#clip1_4722_43916)">
<path d="M47.7709 23.447C47.7706 23.4468 47.7704 23.4465 47.7702 23.4462L43.688 19.3837C43.3821 19.0794 42.8875 19.0805 42.5831 19.3864C42.2787 19.6922 42.2799 20.1869 42.5857 20.4912L45.3265 23.2187H28.7812C28.3498 23.2187 28 23.5685 28 24C28 24.4315 28.3498 24.7812 28.7812 24.7812H45.3264L42.5857 27.5087C42.2799 27.8131 42.2788 28.3078 42.5831 28.6136C42.8875 28.9195 43.3822 28.9205 43.688 28.6162L47.7702 24.5537C47.7704 24.5535 47.7706 24.5532 47.7709 24.553C48.0769 24.2476 48.0759 23.7514 47.7709 23.447Z" fill="white"/>
</g>
<g clip-path="url(#clip2_4722_43916)">
<path d="M24.553 0.229141C24.5532 0.229376 24.5535 0.22957 24.5538 0.229843L28.6163 4.31203C28.9206 4.61785 28.9195 5.1125 28.6136 5.41691C28.3078 5.72129 27.8131 5.72012 27.5088 5.4143L24.7813 2.67352L24.7813 19.2188C24.7813 19.6502 24.4315 20 24 20C23.5685 20 23.2188 19.6502 23.2188 19.2188L23.2188 2.67355L20.4913 5.41426C20.1869 5.72008 19.6922 5.72125 19.3864 5.41687C19.0805 5.11246 19.0795 4.61777 19.3838 4.31199L23.4463 0.229805C23.4465 0.22957 23.4468 0.229374 23.447 0.229101C23.7524 -0.0768757 24.2486 -0.0758991 24.553 0.229141Z" fill="white"/>
</g>
<g clip-path="url(#clip3_4722_43916)">
<path d="M24.553 47.7709C24.5532 47.7706 24.5535 47.7704 24.5538 47.7702L28.6163 43.688C28.9206 43.3821 28.9195 42.8875 28.6136 42.5831C28.3078 42.2787 27.8131 42.2799 27.5088 42.5857L24.7813 45.3265L24.7813 28.7812C24.7813 28.3498 24.4315 28 24 28C23.5685 28 23.2188 28.3498 23.2188 28.7812L23.2188 45.3264L20.4913 42.5857C20.1869 42.2799 19.6922 42.2788 19.3864 42.5831C19.0805 42.8875 19.0795 43.3822 19.3838 43.688L23.4463 47.7702C23.4465 47.7704 23.4468 47.7706 23.447 47.7709C23.7524 48.0769 24.2486 48.0759 24.553 47.7709Z" fill="white"/>
</g>
<defs>
<clipPath id="clip0_4722_43916">
<rect width="20" height="20" fill="white" transform="matrix(-1 0 0 1 20 14)"/>
</clipPath>
<clipPath id="clip1_4722_43916">
<rect width="20" height="20" fill="white" transform="translate(28 14)"/>
</clipPath>
<clipPath id="clip2_4722_43916">
<rect width="20" height="20" fill="white" transform="matrix(0 -1 -1 0 34 20)"/>
</clipPath>
<clipPath id="clip3_4722_43916">
<rect width="20" height="20" fill="white" transform="matrix(0 1 -1 0 34 28)"/>
</clipPath>
</defs>
</svg>
